<svg width="614" height="93" viewBox="0 0 614 93" fill="none" xmlns="http://www.w3.org/2000/svg">
<path fill-rule="evenodd" clip-rule="evenodd" d="M230.395 33.449C231.184 34.2521 232.482 34.3462 233.282 33.5538L236.731 30.1385C237.475 29.4019 237.482 28.1957 236.704 27.4957C235.149 26.0974 233.474 24.8575 231.622 23.8513C230.399 23.1539 228.863 22.5965 227.035 22.1639C225.215 21.6928 223.345 21.4576 221.429 21.4576C216.675 21.4576 212.658 22.8621 209.436 25.7068L209.434 25.7082L209.433 25.7097C206.261 28.5399 204.628 31.9035 204.628 35.7717C204.628 38.9959 205.577 41.7042 207.522 43.8266L207.527 43.8318L207.532 43.8369C209.441 45.8481 211.727 47.331 214.378 48.283L214.383 48.2846L214.387 48.2861C216.933 49.1673 219.463 49.9834 221.977 50.7344L221.983 50.7362L221.989 50.7378C224.452 51.4327 226.526 52.3885 228.225 53.593L228.231 53.5978L228.238 53.6025C229.865 54.7062 230.613 56.0775 230.613 57.7591C230.613 59.8187 229.816 61.4926 228.179 62.8376L228.176 62.8399L228.173 62.8422C226.585 64.1709 224.215 64.8962 220.941 64.8962C219.57 64.8962 218.212 64.6681 216.863 64.2082C215.483 63.7375 214.386 63.2153 213.555 62.6525C212.684 62.03 211.859 61.3456 211.08 60.5991C210.68 60.1821 210.304 59.7548 209.946 59.3146C209.196 58.3929 207.804 58.2447 206.96 59.0808L203.509 62.4982C202.861 63.1403 202.756 64.1606 203.315 64.8818C204.005 65.7729 204.747 66.5905 205.629 67.3811L205.64 67.3909L205.651 67.4003C206.659 68.2406 207.828 69.0743 209.153 69.9025C210.532 70.7648 212.246 71.4897 214.277 72.0888L214.28 72.0898C216.374 72.6978 218.596 72.9994 220.941 72.9994C226.41 72.9994 230.859 71.5964 234.196 68.7066L234.197 68.7051L234.199 68.7035C237.524 65.7899 239.204 62.1242 239.204 57.7591C239.204 54.4454 238.26 51.6602 236.321 49.4726C234.443 47.3226 232.166 45.7803 229.498 44.8562C226.946 43.9401 224.393 43.1381 221.839 42.4503C219.367 41.7528 217.287 40.841 215.583 39.7258C213.993 38.6852 213.268 37.3813 213.268 35.7717C213.268 34.1994 213.957 32.7882 215.466 31.5153C216.947 30.2672 218.909 29.6096 221.429 29.6096C223.381 29.6096 225.203 30.0507 226.907 30.9328L226.912 30.9354L226.917 30.938C228.316 31.6375 229.38 32.4169 230.395 33.449Z" fill="black"/>
<path fill-rule="evenodd" clip-rule="evenodd" d="M251.587 92.988C252.63 92.988 253.476 92.1423 253.476 91.0991V67.9677C253.476 67.2412 254.377 66.8637 254.918 67.3493C254.929 67.3599 254.941 67.3705 254.953 67.3811L254.964 67.3909L254.975 67.4003C255.984 68.2406 257.152 69.0743 258.477 69.9025C259.85 70.7607 261.51 71.4854 263.444 72.0855L263.446 72.0861L263.448 72.0867C265.444 72.6956 267.506 72.9994 269.632 72.9994C276.019 72.9994 281.59 70.4533 286.31 65.4315L286.312 65.4295C291.037 60.3691 293.404 54.304 293.404 47.2773C293.404 40.2179 291.021 34.1359 286.262 29.0752C281.543 24.0222 275.99 21.4576 269.632 21.4576C267.503 21.4576 265.423 21.7787 263.395 22.4204C261.437 23.018 259.793 23.7249 258.481 24.5525C257.203 25.3263 256.009 26.2176 254.9 27.226L254.896 27.2302L254.891 27.2344C254.364 27.7288 253.476 27.3575 253.476 26.6346V24.3704C253.476 23.3272 252.63 22.4814 251.587 22.4814H246.774C245.73 22.4814 244.885 23.3272 244.885 24.3704V91.0991C244.885 92.1423 245.73 92.988 246.774 92.988H251.587ZM280.102 34.7591C283.239 38.1757 284.813 42.3319 284.813 47.2773C284.813 52.1888 283.24 56.3469 280.1 59.7982L280.1 59.7984C276.974 63.2364 273.492 64.8962 269.632 64.8962C265.57 64.8962 261.856 63.1815 258.47 59.6399C255.13 56.0795 253.476 51.97 253.476 47.2773C253.476 42.5496 255.131 38.4409 258.47 34.9146C261.857 31.3392 265.572 29.6096 269.632 29.6096C273.489 29.6096 276.971 31.2832 280.097 34.7535L280.1 34.7563L280.102 34.7591Z" fill="black"/>
<path fill-rule="evenodd" clip-rule="evenodd" d="M330.01 38.3903C330.172 39.3341 329.475 40.1755 328.53 40.3301L312.402 42.9684C307.77 43.7348 304.131 45.3992 301.571 48.0271C298.993 50.6413 297.732 54.0756 297.732 58.2466C297.732 62.1645 299.495 65.6088 302.886 68.5592L302.887 68.5605L302.889 68.5618C306.334 71.5293 310.558 72.9994 315.508 72.9994C317.499 72.9994 319.427 72.7295 321.289 72.1879C323.147 71.6572 324.679 71.0494 325.864 70.3525L325.871 70.3481L325.879 70.3435C327.024 69.6364 328.086 68.844 329.065 67.9662L329.066 67.9651C329.497 67.5773 330.202 67.8815 330.202 68.4613V70.1354C330.202 71.1787 331.047 72.0244 332.091 72.0244H336.903C337.947 72.0244 338.792 71.1787 338.792 70.1354V40.7444C338.792 35.3032 336.907 30.7048 333.139 27.0042C329.399 23.2991 324.671 21.4576 319.018 21.4576C316.791 21.4576 314.598 21.7951 312.442 22.4684C310.352 23.099 308.621 23.8404 307.271 24.7058C304.959 26.1874 302.791 27.9961 300.987 30.0868C300.373 30.7986 300.453 31.8561 301.118 32.5208L304.13 35.5331C304.9 36.3026 306.152 36.2585 306.899 35.4666C308.458 33.8125 310.065 32.3851 312.222 31.275L312.224 31.2739L312.226 31.2729C314.353 30.1633 316.613 29.6096 319.018 29.6096C322.342 29.6096 325.006 30.6487 327.079 32.6918C328.638 34.228 329.621 36.1166 330.01 38.3903ZM328.609 48.0047C329.438 47.8527 330.202 48.4892 330.202 49.3319V49.7637C330.202 54.2941 328.803 57.9145 326.048 60.7L326.046 60.7016L326.045 60.7033C323.319 63.49 319.83 64.8962 315.508 64.8962C312.505 64.8962 310.251 64.2245 308.651 62.9766C307.078 61.692 306.324 60.132 306.323 58.2491C306.339 56.1899 307.022 54.5736 308.347 53.3273C309.697 52.0582 311.776 51.1124 314.681 50.5595L314.684 50.559L328.609 48.0047Z" fill="black"/>
<path d="M351.72 65.4884L351.722 65.4903C356.582 70.4837 362.411 72.9994 369.171 72.9994C371.595 72.9994 373.969 72.6289 376.291 71.8886L376.294 71.8875L376.298 71.8864C378.606 71.1279 380.518 70.31 382.015 69.4254L382.021 69.422L382.026 69.4185C384.653 67.8066 387.134 65.8219 389.167 63.4803C389.807 62.7423 389.695 61.6373 388.97 60.9828L385.567 57.9136C384.768 57.1929 383.535 57.2895 382.816 58.0901C381.056 60.0495 379.217 61.6717 376.737 62.9924C374.35 64.2635 371.831 64.8962 369.171 64.8962C364.827 64.8962 361.053 63.2286 357.815 59.8357C354.618 56.4199 353.015 52.2507 353.015 47.2773C353.015 42.2686 354.619 38.1006 357.815 34.7189C361.055 31.2922 364.829 29.6096 369.171 29.6096C373.801 29.6096 378.339 32.3911 382.159 36.4682C382.916 37.2766 384.199 37.3432 384.986 36.5637L388.504 33.0793C389.225 32.3657 389.256 31.2069 388.552 30.4772C386.009 27.8433 383.415 25.6711 379.965 23.98C376.631 22.2971 373.029 21.4576 369.171 21.4576C362.441 21.4576 356.612 23.9918 351.722 29.0155C346.859 34.0135 344.424 40.1005 344.424 47.2285C344.424 54.3565 346.858 60.4587 351.72 65.4884Z" fill="black"/>
<path fill-rule="evenodd" clip-rule="evenodd" d="M401.148 52.068C400.984 51.2792 401.617 50.5772 402.422 50.5792L438.035 50.6684C438.982 50.6707 439.785 49.9711 439.911 49.0324L440.28 46.3079V46.2535C440.28 39.1439 438.02 33.2148 433.471 28.5306C428.925 23.8163 423.252 21.4576 416.508 21.4576C409.965 21.4576 404.266 23.998 399.445 29.0195C394.648 34.0182 392.248 40.104 392.248 47.2285C392.248 54.3565 394.683 60.4587 399.545 65.4884L399.547 65.4903C404.406 70.4837 410.235 72.9994 416.995 72.9994C419.482 72.9994 421.904 72.6296 424.258 71.8896L424.262 71.8886L424.265 71.8875C426.606 71.1292 428.535 70.3111 430.034 69.4254L430.036 69.424L430.039 69.4226C431.544 68.5195 432.934 67.498 434.208 66.3579L434.209 66.357C435.241 65.4314 436.166 64.4817 437.034 63.4511C437.639 62.732 437.559 61.6747 436.894 61.01L433.887 58.0028C433.114 57.23 431.854 57.2772 431.111 58.0791C429.31 60.0248 427.472 61.6843 424.959 62.9884C422.51 64.2591 419.86 64.8962 416.995 64.8962C412.757 64.8962 409.071 63.4045 405.903 60.3915C403.376 57.9644 401.798 55.1948 401.148 52.068ZM426.674 33.6267L426.675 33.6282L426.677 33.6297C428.936 35.7662 430.457 38.349 431.238 41.3991C431.444 42.2069 430.806 42.9576 429.972 42.9576H402.612C401.765 42.9576 401.125 42.1851 401.363 41.373C402.195 38.544 403.767 36.0308 406.095 33.8241C409.069 31.005 412.528 29.6096 416.508 29.6096C420.498 29.6096 423.871 30.947 426.674 33.6267Z" fill="black"/>
<path d="M480.036 23.7896C479.784 23.0099 479.058 22.4816 478.239 22.4816H473.812C472.994 22.4816 472.268 23.0088 472.016 23.7874L461.774 55.3447C461.534 56.0863 460.487 56.0925 460.237 55.3539L449.569 23.7661C449.31 22.9984 448.59 22.4816 447.779 22.4816H441.802C440.876 22.4816 440.225 23.3936 440.527 24.2696L456.509 70.7498C456.771 71.5125 457.488 72.0245 458.295 72.0245H463.275C464.092 72.0245 464.816 71.4997 465.07 70.7235L475.236 39.6881C475.479 38.9452 476.53 38.9445 476.774 39.6872L486.982 70.7257C487.237 71.5007 487.96 72.0245 488.776 72.0245H493.709C494.515 72.0245 495.233 71.5125 495.495 70.7498L511.477 24.2696C511.778 23.3936 511.127 22.4816 510.201 22.4816H504.224C503.414 22.4816 502.694 22.9984 502.435 23.7661L491.77 55.3446C491.52 56.0837 490.472 56.0768 490.232 55.3345L480.036 23.7896Z" fill="black"/>
<path fill-rule="evenodd" clip-rule="evenodd" d="M520.451 52.068C520.287 51.2792 520.92 50.5772 521.725 50.5792L557.338 50.6684C558.285 50.6707 559.087 49.9711 559.214 49.0324L559.582 46.3079V46.2535C559.582 39.1429 557.322 33.213 552.772 28.5285C548.226 23.8156 542.554 21.4576 535.81 21.4576C529.268 21.4576 523.569 23.998 518.748 29.0195C513.95 34.0182 511.551 40.104 511.551 47.2285C511.551 54.3565 513.985 60.4587 518.847 65.4884L518.849 65.4903C523.709 70.4837 529.538 72.9994 536.298 72.9994C538.785 72.9994 541.207 72.6296 543.561 71.8896L543.564 71.8886L543.568 71.8875C545.909 71.1292 547.838 70.3111 549.337 69.4254L549.339 69.424L549.341 69.4226C551.984 67.8372 554.349 65.8043 556.335 63.4502C556.942 62.7317 556.862 61.6746 556.197 61.0099L553.19 58.0028C552.417 57.23 551.157 57.2772 550.414 58.0791C548.613 60.0248 546.774 61.6843 544.262 62.9884C541.813 64.2591 539.163 64.8962 536.298 64.8962C532.059 64.8962 528.373 63.4041 525.204 60.3901C522.678 57.9634 521.101 55.1943 520.451 52.068ZM545.976 33.6267L545.978 33.6282L545.98 33.6297C548.239 35.7662 549.76 38.349 550.54 41.3991C550.747 42.2069 550.109 42.9576 549.275 42.9576H521.914C521.068 42.9576 520.427 42.1851 520.666 41.373C521.498 38.544 523.07 36.0308 525.398 33.8241C528.372 31.005 531.831 29.6096 535.81 29.6096C539.8 29.6096 543.174 30.947 545.976 33.6267Z" fill="black"/>
<path fill-rule="evenodd" clip-rule="evenodd" d="M575.487 27.2344C574.959 27.7289 574.071 27.3575 574.071 26.6346V2.38299C574.071 1.33974 573.225 0.494019 572.182 0.494019H567.369C566.326 0.494019 565.48 1.33974 565.48 2.38299V70.1354C565.48 71.1787 566.326 72.0244 567.369 72.0244H572.182C573.225 72.0244 574.071 71.1787 574.071 70.1354V67.9944C574.071 67.2619 575.003 66.8921 575.549 67.3811L575.56 67.3909L575.571 67.4003C576.579 68.2406 577.748 69.0743 579.073 69.9025C580.446 70.7607 582.106 71.4854 584.04 72.0855L584.042 72.0861L584.044 72.0867C586.039 72.6956 588.102 72.9995 590.228 72.9995C596.615 72.9995 602.185 70.4533 606.906 65.4315L606.908 65.4295C611.633 60.3691 614 54.304 614 47.2773C614 40.2174 611.616 34.1351 606.857 29.0743C602.138 24.0219 596.585 21.4576 590.228 21.4576C588.098 21.4576 586.019 21.7787 583.991 22.4205C582.033 23.018 580.389 23.7247 579.077 24.5521C577.799 25.326 576.605 26.2174 575.496 27.226L575.491 27.2302L575.487 27.2344ZM600.698 34.7591C603.835 38.1757 605.409 42.3319 605.409 47.2773C605.409 52.1888 603.836 56.3469 600.696 59.7982L600.695 59.7984C597.57 63.2364 594.088 64.8962 590.228 64.8962C586.166 64.8962 582.452 63.1816 579.066 59.6403C575.725 56.0799 574.071 51.9703 574.071 47.2773C574.071 42.5495 575.727 38.4408 579.066 34.9145C582.453 31.3392 586.167 29.6096 590.228 29.6096C594.085 29.6096 597.567 31.2832 600.693 34.7535L600.695 34.7563L600.698 34.7591Z" fill="black"/>
<path fill-rule="evenodd" clip-rule="evenodd" d="M82.6614 70.8308H82.6928V70.4765L82.7267 70.8308H82.7581C84.9507 70.8308 87.1399 71.2888 89.0831 72.2039C92.0016 73.5793 95.2547 74.3476 98.6898 74.3476C106.5 74.3476 114.931 70.7625 121.3 68.0532L122.953 67.3525C123.576 67.091 124.173 66.8427 124.743 66.6134C126.19 66.0305 127.334 66.0227 127.566 68.3596C127.919 71.907 127.828 75.3562 126.901 80.3348C126.816 80.7778 127.252 81.1776 127.711 81.1776H129.857C130.222 81.1776 130.619 80.9773 130.804 80.6537C132.872 75.9508 134.637 70.1207 134.456 64.128C134.291 58.6632 133.427 55.6821 128.125 57.7983L122.007 59.6875C120.541 60.041 120.544 58.7708 120.545 57.7692C120.545 57.2634 120.569 56.7544 120.507 56.2508C120.41 53.7663 120.399 53.456 124.893 50.7915L133.854 45.311C134.488 44.8954 135.339 45.0211 135.78 45.6393C138.762 49.1741 141.853 54.7576 142.218 61.3504C142.679 69.6895 141.538 74.2235 140.103 79.9247L140.016 80.2743C139.961 80.7534 140.338 81.1729 140.819 81.1729H143.291C143.613 81.1729 143.919 80.9679 144.038 80.6678C146.689 74.9414 149.261 67.9087 148.857 59.3442C148.363 48.8921 144.372 39.5296 138.215 34.6751C136.509 33.2682 134.807 33.1677 132.994 34.4245L122.992 40.2609C119.716 42.2498 118.774 41.1721 117.853 39.3403C117.655 38.9467 117.448 38.5587 117.232 38.1753C116.394 36.675 115.556 35.0623 117.665 33.5573C118.541 32.9312 121.274 31.0546 124.322 28.9597L124.374 28.9243L124.619 28.7562L124.854 28.596L124.982 28.5088L124.994 28.4994C129.108 25.677 133.584 22.6056 134.776 21.7376C136.928 20.1705 138.846 19.3112 140.21 20.6316C145.876 26.12 154.099 34.9987 157.064 47.1255C159.772 58.2029 157.166 68.5316 154.755 78.0811L154.399 79.4958L154.228 80.18C154.106 80.6859 154.487 81.18 155.006 81.18H157.334C157.617 81.18 157.881 81.0229 158.024 80.777C163.688 69.7735 167.175 57.2453 164.506 42.7227C161.681 27.3549 150.193 14.961 143.341 8.78525L143.256 8.70749C141.144 6.80418 139.178 5.03049 134.776 8.06415C130.315 11.1387 108.127 25.9189 106.044 27.204C103.961 28.4891 101.591 29.5009 99.4365 29.3744C93.906 29.05 89.2329 28.8874 82.7518 28.8874H82.7267L82.6928 29.2417V28.8874H82.6677C76.1866 28.8874 71.5135 29.05 65.9831 29.3744C63.8281 29.5009 61.4589 28.4891 59.3757 27.204C57.2925 25.9189 35.1048 11.1387 30.6435 8.06415C26.2415 5.03049 24.2751 6.80418 22.164 8.70749L22.0784 8.78525C15.2263 14.961 3.73846 27.3549 0.913558 42.7227C-1.75591 57.2453 1.73178 69.7735 7.39541 80.777C7.53855 81.0229 7.80209 81.18 8.08563 81.18H10.4136C10.9324 81.18 11.314 80.6859 11.1917 80.18C11.0183 79.4848 10.8417 78.7849 10.6641 78.0811C8.25391 68.5316 5.64724 58.2029 8.35545 47.1255C11.3202 34.9987 19.5434 26.12 25.2095 20.6316C26.5731 19.3112 28.4912 20.1705 30.6435 21.7376C31.837 22.6064 36.3204 25.6833 40.4375 28.5088L40.5625 28.5936L41.1283 28.9824L41.3643 29.145L41.447 29.2016C44.3531 31.1976 46.9121 32.9556 47.7548 33.5573C49.8631 35.0623 49.0258 36.675 48.1878 38.1753C47.9716 38.5587 47.7642 38.9467 47.5666 39.3403C46.6453 41.1721 45.7033 42.2498 42.4275 40.2609L32.4255 34.4245C30.6125 33.1677 28.9101 33.2682 27.2049 34.6751C21.0474 39.5296 17.0567 48.8921 16.5629 59.3442C16.1582 67.9087 18.73 74.9414 21.3819 80.6678C21.5006 80.9679 21.807 81.1729 22.1286 81.1729H24.6009C25.0817 81.1729 25.4589 80.7534 25.404 80.2743L25.3161 79.9247C23.8812 74.2235 22.7404 69.6895 23.2016 61.3504C23.5662 54.7576 26.6574 49.1741 29.6395 45.6393C30.0807 45.0211 30.9317 44.8954 31.5659 45.311L40.5263 50.7915C45.0206 53.456 45.0096 53.7663 44.9123 56.2508C44.864 56.6436 44.8682 57.0403 44.8723 57.4354L44.8747 57.7692C44.8751 58.7708 44.8782 60.041 43.4127 59.6875L37.2947 57.7983C31.9926 55.6821 31.1289 58.6632 30.9635 64.128C30.7821 70.1207 32.5475 75.9508 34.6154 80.6537C34.8004 80.9773 35.1974 81.1776 35.5629 81.1776H37.7089C38.1673 81.1776 38.6034 80.7778 38.5183 80.3348C37.5917 75.3562 37.5007 71.907 37.8532 68.3596C38.0854 66.0227 39.2295 66.0305 40.6769 66.6134C41.7126 67.0305 42.8408 67.5096 44.0432 68.0202L44.1193 68.0532C50.4887 70.7625 58.9195 74.3476 66.7298 74.3476C70.1648 74.3476 73.4179 73.5793 76.3364 72.2039C78.2797 71.2888 80.4688 70.8308 82.6614 70.8308ZM74.6245 55.8243C75.06 55.6187 76.1333 56.2613 75.8976 56.6817C74.0061 60.055 70.3997 62.3347 66.2617 62.3347C60.1625 62.3347 55.2181 57.3828 55.2181 51.2746C55.2181 45.1664 60.1625 40.2145 66.2617 40.2145C70.3997 40.2145 74.0061 42.4942 75.8976 45.8675C76.1333 46.2879 75.06 46.9305 74.6245 46.7249C73.9758 46.4186 73.251 46.2473 72.4863 46.2473C69.7139 46.2473 67.4665 48.4978 67.4665 51.2746C67.4665 54.0514 69.7139 56.3019 72.4863 56.3019C73.251 56.3019 73.9758 56.1306 74.6245 55.8243ZM98.991 62.3347C103.129 62.3347 106.735 60.055 108.627 56.6817C108.863 56.2613 107.789 55.6187 107.354 55.8243C106.705 56.1306 105.98 56.3019 105.216 56.3019C102.443 56.3019 100.196 54.0514 100.196 51.2746C100.196 48.4978 102.443 46.2473 105.216 46.2473C105.98 46.2473 106.705 46.4186 107.354 46.7249C107.789 46.9305 108.863 46.2879 108.627 45.8675C106.735 42.4942 103.129 40.2145 98.991 40.2145C92.8917 40.2145 87.9473 45.1664 87.9473 51.2746C87.9473 57.3828 92.8917 62.3347 98.991 62.3347Z" fill="#3393FF"/>
</svg>