<svg xmlns="http://www.w3.org/2000/svg" xmlns:xlink="http://www.w3.org/1999/xlink" width="195.27199999999996" height="37.1524"><path fill="#000" d="M15.15 18.04L19.84 7.39L15.95 7.39L11.25 18.04ZM12.65 29.42L12.65 25.68C12.65 22.86 12.30 22.03 11.22 19.69L5.58 7.39L1.58 7.39L8.81 23.11L8.81 29.42ZM55.22 29.73C57.00 29.73 58.45 28.91 59.47 27.36L59.66 29.42L63.15 29.42L63.15 7.39L59.37 7.39L59.37 15.34C58.42 13.92 57.03 13.16 55.38 13.16C51.73 13.16 49.20 16.23 49.20 21.56C49.20 26.82 51.67 29.73 55.22 29.73ZM78.39 28.34L78.39 25.26C77.22 26.06 75.26 26.75 73.42 26.75C70.66 26.75 69.61 25.46 69.45 22.79L78.55 22.79L78.55 20.80C78.55 15.25 76.11 13.16 72.34 13.16C67.74 13.16 65.56 16.67 65.56 21.49C65.56 27.04 68.28 29.73 73.10 29.73C75.51 29.73 77.28 29.10 78.39 28.34ZM37.79 17.97C38.48 17.12 39.59 16.39 40.96 16.39C42.29 16.39 42.89 16.96 42.89 18.16L42.89 29.42L46.66 29.42L46.66 17.78C46.66 14.61 45.39 13.22 42.32 13.22C40.07 13.22 38.74 14.04 37.98 14.80L37.79 14.80L37.69 13.47L34.01 13.47L34.01 29.42L37.79 29.42ZM30.94 18.54C30.94 14.68 28.97 13.22 24.98 13.22C22.48 13.22 20.51 14.01 19.37 14.68L19.37 17.82C20.38 17.05 22.60 16.23 24.54 16.23C26.34 16.23 27.17 16.86 27.17 18.58L27.17 19.46L26.56 19.46C20.80 19.46 18.23 21.37 18.23 24.60C18.23 27.83 20.19 29.64 23.11 29.64C25.33 29.64 26.28 28.91 27.01 28.15L27.17 28.15C27.20 28.56 27.33 29.10 27.45 29.42L31.13 29.42C31.00 28.12 30.94 26.82 30.94 25.52ZM90.00 29.42L94.24 29.42L89.05 21.21L93.55 13.47L89.77 13.47L87.05 18.29L84.00 13.47L79.76 13.47L84.58 21.11L79.57 29.42L83.40 29.42L86.60 24.03ZM56.33 16.14C58.36 16.14 59.37 17.75 59.37 21.43C59.37 25.14 58.30 26.75 56.17 26.75C54.11 26.75 53.10 25.17 53.10 21.56C53.10 17.78 54.18 16.14 56.33 16.14ZM72.28 16.14C74.15 16.14 74.72 17.69 74.72 19.69L74.72 20.00L69.45 20.00C69.55 17.47 70.47 16.14 72.28 16.14ZM27.17 25.61C26.69 26.31 25.80 26.88 24.47 26.88C22.89 26.88 22.09 25.99 22.09 24.63C22.09 22.82 23.39 22.16 26.63 22.16L27.17 22.16ZM110.85 29.42L114.22 29.42L118.65 13.00L118.65 29.42L122.33 29.42L122.33 7.39L117.19 7.39L112.73 23.90L108.22 7.39L103.12 7.39L103.12 29.42L106.42 29.42L106.42 13.00ZM137.70 28.34L137.70 25.26C136.53 26.06 134.57 26.75 132.73 26.75C129.97 26.75 128.92 25.46 128.77 22.79L137.86 22.79L137.86 20.80C137.86 15.25 135.42 13.16 131.65 13.16C127.05 13.16 124.87 16.67 124.87 21.49C124.87 27.04 127.59 29.73 132.41 29.73C134.82 29.73 136.60 29.10 137.70 28.34ZM131.59 16.14C133.46 16.14 134.03 17.69 134.03 19.69L134.03 20.00L128.77 20.00C128.86 17.47 129.78 16.14 131.59 16.14ZM139.13 13.47L139.13 16.45L141.13 16.45L141.13 24.63C141.13 27.61 142.81 29.73 146.30 29.73C148.13 29.73 149.18 29.32 149.18 29.32L149.18 26.25C149.18 26.25 148.48 26.75 147.21 26.75C145.63 26.75 144.90 25.84 144.90 24.66L144.90 16.45L148.86 16.45L148.86 13.47L144.90 13.47L144.90 9.99L141.13 9.99L141.13 13.47ZM154.85 19.46C155.90 17.53 157.45 16.55 159.77 16.67L159.77 13.12C157.61 13.25 155.84 14.55 154.95 16.64L154.85 16.64L154.76 13.47L151.08 13.47L151.08 29.42L154.85 29.42ZM163.70 11.51C164.94 11.51 165.92 10.65 165.92 9.29C165.92 7.96 164.94 7.07 163.70 7.07C162.46 7.07 161.51 7.96 161.51 9.29C161.51 10.65 162.46 11.51 163.70 11.51ZM161.83 13.47L161.83 29.42L165.60 29.42L165.60 13.47ZM175.62 29.73C177.36 29.73 178.60 29.42 179.52 28.75L179.52 25.68C178.57 26.34 177.42 26.75 175.84 26.75C173.15 26.75 172.04 24.66 172.04 21.37C172.04 17.91 173.40 16.14 175.87 16.14C177.33 16.14 178.76 16.64 179.52 17.12L179.52 13.92C178.72 13.47 177.33 13.16 175.46 13.16C170.64 13.16 168.14 16.61 168.14 21.46C168.14 26.79 170.58 29.73 175.62 29.73ZM193.81 18.54C193.81 14.68 191.85 13.22 187.85 13.22C185.35 13.22 183.38 14.01 182.24 14.68L182.24 17.82C183.26 17.05 185.48 16.23 187.41 16.23C189.22 16.23 190.04 16.86 190.04 18.58L190.04 19.46L189.44 19.46C183.67 19.46 181.10 21.37 181.10 24.60C181.10 27.83 183.07 29.64 185.98 29.64C188.20 29.64 189.15 28.91 189.88 28.15L190.04 28.15C190.07 28.56 190.20 29.10 190.33 29.42L194.00 29.42C193.88 28.12 193.81 26.82 193.81 25.52ZM190.04 25.61C189.57 26.31 188.68 26.88 187.35 26.88C185.76 26.88 184.97 25.99 184.97 24.63C184.97 22.82 186.27 22.16 189.50 22.16L190.04 22.16Z"/></svg>